<svg width="286" height="223" viewBox="0 0 286 223" fill="none" xmlns="http://www.w3.org/2000/svg">
<g clip-path="url(#clip0_385_3)">
<path d="M156.397 49.5245L157.807 57.6231L142.645 60.0879L146.171 48.8203L156.397 49.5245Z" fill="#A0616A"/>
<path d="M195.068 54.8802C198.122 56.2464 198.855 61.2429 196.701 66.0351C195.869 67.9612 194.582 69.6619 192.956 70.9929L189.878 79.1971C187.857 88.9788 183.263 99.2781 176.93 98.4788C167.969 97.3485 165.145 86.4753 165.145 86.4753L177.205 81.764L182.589 71.4013L184.423 67.1725C184.334 65.0739 184.751 62.9859 185.639 61.0844C187.79 56.2887 192.011 53.514 195.068 54.8802Z" fill="#A0616A"/>
<path d="M92.4248 212.264L84.0642 206.092L84.1312 205.958L130.716 113.271L130.804 113.257L168.315 106.898L176.129 124.275L196.56 152.961C197.967 154.937 198.704 157.264 198.686 159.69L198.355 210.789L185.678 211.151L185.661 210.99L181.239 169.676C180.918 166.666 179.352 163.88 176.947 162.035L152.01 142.905L92.4213 212.268L92.4248 212.264Z" fill="#2F2E41"/>
<path d="M85.3441 206.743C85.3441 206.743 81.1127 207.447 79.7022 209.912C78.2917 212.377 74.0603 217.658 74.0603 217.658C74.0603 217.658 70.8867 223.644 78.2917 222.94C85.6967 222.236 88.5176 219.067 88.5176 219.067L91.6912 210.264L85.3441 206.743Z" fill="#2F2E41"/>
<path d="M192.187 206.743C192.187 206.743 196.419 207.447 197.829 209.912C199.24 212.377 203.471 217.658 203.471 217.658C203.471 217.658 206.645 223.644 199.24 222.94C191.835 222.236 189.014 219.067 189.014 219.067L185.84 210.264L192.187 206.743Z" fill="#2F2E41"/>
<path d="M135.592 59.736L160.628 54.8064L174.733 59.3839L170.854 111.849L130.832 113.433L135.592 59.736Z" fill="#7C3AED"/>
<path d="M172.222 58.2112L177.673 66.4365L178.939 86.7147L162.744 87.9436L163.181 61.6689L172.222 58.2112Z" fill="#7C3AED"/>
<path d="M187.208 77.9472L180.657 75.3486L172.324 90.7606L179.934 94.5493L187.208 77.9472Z" fill="#A0616A"/>
<path d="M191.778 64.831C191.323 64.831 190.869 64.7535 190.431 64.5986C189.38 64.2254 188.531 63.4226 188.093 62.3979L183.122 50.7359C181.249 46.3416 179.098 42.0141 176.729 37.8697L175.692 36.0528C174.976 34.9543 158.061 8.9613 157.257 6.92961C156.65 5.39792 158.463 2.26059 158.541 2.12679L158.562 2.09862C158.6 2.05285 162.659 -2.36265 167.543 1.73946C172.338 5.76411 180.406 32.4402 180.748 33.574L180.967 34.1233C182.956 39.1444 185.473 43.9789 188.446 48.4895L195.128 58.6303C195.749 59.574 195.943 60.743 195.661 61.8345C195.379 62.9261 194.642 63.8521 193.637 64.3768C193.058 64.6796 192.42 64.831 191.778 64.831Z" fill="#3F3D56"/>
<path d="M147.193 68.5422L155.067 68.9823L170.191 53.0492L176.101 46.0352C176.619 44 177.617 42.1197 179.01 40.5492C182.448 36.5704 187.286 35.1161 189.821 37.2992C192.357 39.4823 191.627 44.4753 188.189 48.4542C186.838 50.0633 185.117 51.3239 183.178 52.1338L181.722 54.0528L165.029 77.4823C162.017 81.7112 156.693 83.6232 151.672 82.2781L141.456 79.5422L147.193 68.5387V68.5422Z" fill="#A0616A"/>
<path d="M142.775 84.243L130.627 76.4508C126.766 73.9754 125.282 69.1233 127.098 64.9156C128.201 62.3592 130.366 60.4437 133.039 59.6621C135.709 58.8768 138.572 59.317 140.885 60.8733L152.814 68.8909L142.775 84.243Z" fill="#7C3AED"/>
<path d="M148.646 52.5037C155.521 52.5037 161.094 46.9388 161.094 40.0741C161.094 33.2094 155.521 27.6445 148.646 27.6445C141.772 27.6445 136.199 33.2094 136.199 40.0741C136.199 46.9388 141.772 52.5037 148.646 52.5037Z" fill="#A0616A"/>
<path d="M156.834 50.8029L155.758 49.0142C155.758 49.0142 160.466 45.8451 156.576 44.0071C152.687 42.1691 152.074 37.6726 152.074 37.6726C152.074 37.6726 140.712 34.405 141.326 31.9508C141.939 29.4966 140.201 27.7606 143.064 26.7395C145.931 25.7184 158.72 26.7395 160.156 29.7008C161.587 32.6656 163.022 40.8381 162.307 41.9649C161.591 43.0916 156.834 50.8064 156.834 50.8064V50.8029Z" fill="#2F2E41"/>
<path d="M153.607 36.75L142.042 29.0881C142.042 29.0881 127.101 24.493 132.729 33.2782L137.489 34.25C137.489 34.25 150.434 37.2641 153.607 36.75Z" fill="#7C3AED"/>
<path d="M150.127 35.0142L162.204 44.1093C162.204 44.1093 169.264 31.5388 158.209 25.3064C147.154 19.074 140.148 28.8346 140.148 28.8346L143.064 31.9508L150.127 35.0142Z" fill="#7C3AED"/>
<path d="M63.3513 14.4896C63.3513 18.2853 66.4332 21.3663 70.2379 21.3663C72.0998 21.3663 73.7888 20.6269 75.0265 19.4262C76.3206 18.1762 77.1211 16.4262 77.1211 14.4896C77.1211 10.6938 74.0392 7.61279 70.2379 7.61279C69.0461 7.61279 67.9283 7.91561 66.9515 8.44378C66.7858 8.53533 66.6236 8.63392 66.4649 8.73955C64.9769 9.71138 63.8943 11.2431 63.51 13.0353C63.4606 13.2396 63.4254 13.4473 63.4042 13.6586C63.3689 13.9297 63.3513 14.2079 63.3513 14.4896Z" fill="#7C3AED"/>
<path d="M63.4043 13.6584C63.5136 13.7781 63.6264 13.9084 63.7499 14.0563C64.166 14.5563 64.3317 14.8274 64.5644 15.2042C64.7654 15.5316 65.0193 15.9401 65.5165 16.6302C66.5426 18.0528 67.0574 18.7675 67.8579 19.4154C68.6477 20.0528 69.6315 20.8485 71.109 20.9506C71.2113 20.9577 71.3135 20.9577 71.4123 20.9577C73.2 20.9577 74.5047 19.8837 75.0019 19.4014C76.3031 18.1337 76.5746 16.595 76.631 15.9929C76.6768 15.507 76.7403 13.8028 75.6225 12.2711C74.6352 10.919 73.2705 10.4366 71.9482 9.96473C71.0843 9.65839 70.4284 9.54924 69.8466 9.45065C69.0497 9.31684 68.3656 9.20065 67.3184 8.65135C67.1738 8.57389 67.0539 8.50698 66.9516 8.4436C66.7859 8.53515 66.6237 8.63374 66.465 8.73938C66.4897 8.75346 66.5179 8.77107 66.5461 8.78867C66.6836 8.86966 66.8529 8.96825 67.0856 9.09149C68.2034 9.67952 68.9616 9.8098 69.762 9.9436C70.3509 10.0422 70.9609 10.1443 71.7825 10.4366C73.0872 10.9014 74.3213 11.338 75.217 12.5668C76.2325 13.9577 76.1726 15.5035 76.1338 15.9436C76.0809 16.4929 75.8341 17.8908 74.6528 19.0422C74.1768 19.5035 72.8862 20.5704 71.1443 20.4506C69.8219 20.3591 68.9087 19.6197 68.1717 19.0281C67.4241 18.4225 66.9234 17.7253 65.9255 16.3415C65.4354 15.6619 65.1885 15.2605 64.9911 14.9401C64.7583 14.5633 64.575 14.264 64.1377 13.7394C63.9015 13.4542 63.6934 13.2253 63.5101 13.0352C63.4607 13.2394 63.4255 13.4471 63.4043 13.6584Z" fill="#E6E6E6"/>
</g>
<path opacity="0.1" d="M90.0937 0.248788C118.078 3.76214 140.799 28.1928 166.011 43.4385C171.629 46.8359 177.518 49.8276 183.744 50.7136C204.368 53.6501 223.385 33.3014 244.105 34.9628C260.898 36.3097 275.14 52.6262 281.182 71.8185C287.224 91.0109 286.297 112.477 282.942 132.625C277.689 164.088 266.05 195.04 245.79 215.505C242.447 218.883 238.713 222.043 234.419 222.81C227.263 224.104 220.628 218.543 214.436 213.945C186.488 193.185 151.156 187.914 119.952 199.848C109.385 203.888 99.2773 209.783 88.4628 212.692C67.6374 218.284 44.0707 211.218 29.9312 191.717C15.7918 172.215 13.4929 140.162 26.9643 119.959C32.5882 111.528 40.3395 105.575 46.2432 97.4387C61.0777 77.0154 55.6013 56.3659 53.7657 32.4154C51.9573 8.81552 73.7457 -1.80182 90.0937 0.248788Z" fill="#7C3AED"/>
<defs>
<clipPath id="clip0_385_3">
<rect width="258" height="223" fill="white"/>
</clipPath>
</defs>
</svg>
