<svg width="321" height="351" viewBox="0 0 321 351" fill="none" xmlns="http://www.w3.org/2000/svg">
<rect width="321" height="351" rx="30" fill="url(#paint0_linear_373_2)"/>
<path d="M130.217 208.896C131.717 211.795 131.435 214.917 129.587 215.87C127.739 216.823 125.025 215.246 123.524 212.347C122.868 211.078 122.553 209.766 122.561 208.612L116.358 196.248L122.232 193.466L127.724 205.95C128.671 206.611 129.56 207.627 130.217 208.896Z" fill="#FFB6B6"/>
<path d="M84.0591 320.454L89.3475 320.453L91.8632 300.09L84.058 300.091L84.0591 320.454Z" fill="#FFB6B6"/>
<path d="M102.178 320.334C102.343 320.611 102.429 321.504 102.429 321.826C102.429 322.816 101.626 323.618 100.635 323.618H84.2569C83.5806 323.618 83.0324 323.071 83.0324 322.396V321.715C83.0324 321.715 82.2222 319.669 83.8903 317.148C83.8903 317.148 85.9634 319.122 89.0612 316.03L89.9747 314.378L96.5873 319.205L100.253 319.656C101.054 319.754 101.765 319.64 102.178 320.334Z" fill="#2F2E41"/>
<path d="M59.2488 320.454L64.5372 320.453L67.0529 300.09L59.2477 300.091L59.2488 320.454Z" fill="#FFB6B6"/>
<path d="M77.3676 320.334C77.5322 320.611 77.6191 321.504 77.6191 321.826C77.6191 322.816 76.8155 323.618 75.8242 323.618H59.4466C58.7703 323.618 58.2221 323.071 58.2221 322.396V321.715C58.2221 321.715 57.4119 319.669 59.08 317.148C59.08 317.148 61.1531 319.122 64.2509 316.03L65.1644 314.378L71.777 319.205L75.4423 319.656C76.2442 319.754 76.9551 319.64 77.3676 320.334Z" fill="#2F2E41"/>
<path d="M51.7632 200.309L49.5353 213.9L56.4665 257.886L58.1992 311.015H67.5571L72.3091 260.851L71.814 227.739L82.9534 311.509H92.6777L93.5977 206.487L51.7632 200.309Z" fill="#2F2E41"/>
<path d="M63.3976 129.883H80.9165L96.0731 138.779C93.7141 138.18 91.8918 160.027 91.8298 179.331C91.8257 180.614 90.5524 182.089 90.5641 183.342C90.5743 184.421 91.8675 185.284 91.8899 186.331C91.9109 187.31 91.9374 188.272 91.9695 189.215C91.9962 189.997 90.5296 191.034 90.5641 191.787C90.6083 192.749 92.1562 193.417 92.2137 194.322C92.567 199.887 93.1761 204.295 94.0928 206.487C94.0928 206.487 54.9812 217.36 52.0107 200.556C52.0107 200.556 52.1803 194.517 52.1565 186.176C52.1544 185.436 51.523 184.765 51.5176 183.991C51.5136 183.416 52.1363 182.745 52.1302 182.154C52.1252 181.668 51.5242 181.239 51.5176 180.743C51.5137 180.448 52.1048 180.089 52.1004 179.791C51.8629 163.931 50.7961 143.943 47.0598 138.779L63.3976 129.883Z" fill="#7C3AED"/>
<path d="M80.7256 129.883C80.7256 129.883 92.0776 134.001 95.6797 137.282C97.5938 139.025 110.431 171.892 110.431 171.892L128.26 202.889L118.992 206.403L100.034 177.822L91.6174 159.042L80.7256 129.883Z" fill="#7C3AED"/>
<path d="M57.1795 210.068C58.8352 212.882 58.7235 216.015 56.9299 217.067C55.1364 218.119 52.3402 216.691 50.6845 213.877C49.9597 212.646 49.5737 211.353 49.5191 210.2L42.6532 198.191L48.3674 195.094L54.5294 207.262C55.5114 207.871 56.4547 208.837 57.1795 210.068Z" fill="#FFB6B6"/>
<path d="M60.9222 145.204L55.9714 133.837C55.9714 133.837 44.3369 137.543 44.3369 142.98C44.3369 142.98 37.4057 184.494 38.3959 194.873L44.832 206.24L53.991 199.074L48.2976 185.977L60.9222 145.204Z" fill="#7C3AED"/>
<path d="M50.7404 219.053L56.5802 207.476L63.3977 216.866L57.262 222.796L50.7404 219.053Z" fill="#2F2E41"/>
<path d="M71.992 126.617C78.2496 126.617 83.3224 121.553 83.3224 115.307C83.3224 109.06 78.2496 103.996 71.992 103.996C65.7344 103.996 60.6616 109.06 60.6616 115.307C60.6616 121.553 65.7344 126.617 71.992 126.617Z" fill="#FFB6B6"/>
<path d="M80.8272 102.672C78.8582 102.042 77.9266 99.7044 76.1255 98.6909C74.1337 97.5701 71.7509 96.8704 69.5545 97.5046C68.2068 97.8937 67.0327 98.7537 65.684 99.1395C65.4483 99.207 65.2003 99.2535 64.9485 99.2774C63.4981 99.4154 62.2529 100.284 61.5281 101.545L61.5091 101.578C61.0836 102.305 60.4788 102.907 59.942 103.556C57.9831 105.926 56.9228 109.005 56.9447 112.078C56.9681 115.38 58.241 118.659 60.453 121.115L61.0181 120.854C62.3836 122.032 63.7492 123.209 65.1148 124.387C64.3716 121.71 63.6215 118.94 64.015 116.19C64.4084 113.44 66.2608 110.697 68.992 110.166C70.0252 109.965 71.115 110.086 72.1179 109.767C73.1209 109.449 74.0447 108.419 73.7007 107.426C74.3217 109.065 76.6382 108.968 78.2326 109.702C81.8011 111.343 80.4948 108.807 83.5925 111.219C84.6388 105.43 88.6468 105.172 80.8272 102.672Z" fill="#2F2E41"/>
<path d="M257.892 324H143.079C129.079 324 117.69 312.63 117.69 298.655V52.3446C117.69 38.3696 129.079 27 143.079 27H257.892C271.891 27 283.28 38.3696 283.28 52.3446V298.655C283.28 312.63 271.891 324 257.892 324Z" fill="#3F3D56"/>
<path d="M283.281 117.601C282.688 117.601 282.207 118.082 282.207 118.673V152.984C282.207 153.575 282.688 154.056 283.281 154.056C283.873 154.056 284.355 153.575 284.355 152.984V118.673C284.355 118.082 283.873 117.601 283.281 117.601Z" fill="#3F3D56"/>
<path d="M280.864 52.3448V298.651C280.864 310.815 271.38 320.765 259.388 321.537H259.383C259.205 321.548 259.028 321.558 258.845 321.564C258.529 321.58 258.212 321.585 257.89 321.585C257.89 321.585 256.708 321.499 254.549 321.339C252.369 321.178 249.195 320.937 245.237 320.62C244.05 320.529 242.799 320.427 241.478 320.32C238.846 320.106 235.957 319.87 232.858 319.602C231.623 319.5 230.345 319.387 229.04 319.275C222.37 318.701 214.9 318.031 207.021 317.27C205.69 317.146 204.347 317.018 202.994 316.884C202.639 316.846 202.279 316.814 201.92 316.776C196.302 316.224 120.107 301.524 120.107 298.651V52.3448C120.107 39.6767 130.391 29.4104 143.081 29.4104H156.797C158.988 29.4104 160.75 31.1152 160.938 33.2971C160.954 33.4419 160.97 33.5866 160.997 33.7314C161.394 35.924 163.408 37.4519 165.642 37.4519H235.329C237.563 37.4519 239.577 35.924 239.974 33.7314C240.001 33.5866 240.017 33.4419 240.033 33.2971C240.221 31.1152 241.982 29.4104 244.174 29.4104H257.89C270.58 29.4104 280.864 39.6767 280.864 52.3448Z" fill="#FCFBFE"/>
<path d="M117.153 91.8682C116.561 91.8682 116.079 92.349 116.079 92.9404V101.518C116.079 102.109 116.561 102.59 117.153 102.59C117.745 102.59 118.227 102.109 118.227 101.518V92.9404C118.227 92.349 117.745 91.8682 117.153 91.8682Z" fill="#3F3D56"/>
<path d="M117.153 117.601C116.561 117.601 116.079 118.082 116.079 118.673V135.292C116.079 135.884 116.561 136.365 117.153 136.365C117.745 136.365 118.227 135.884 118.227 135.292V118.673C118.227 118.082 117.745 117.601 117.153 117.601Z" fill="#3F3D56"/>
<path d="M117.153 141.189C116.561 141.189 116.079 141.67 116.079 142.262V158.881C116.079 159.472 116.561 159.953 117.153 159.953C117.745 159.953 118.227 159.472 118.227 158.881V142.262C118.227 141.67 117.745 141.189 117.153 141.189Z" fill="#3F3D56"/>
<path d="M156.423 33.1653H135.883C135.771 33.1653 135.681 33.2555 135.681 33.3668V35.6443C135.681 35.7556 135.771 35.8458 135.883 35.8458H156.423C156.535 35.8458 156.625 35.7556 156.625 35.6443V33.3668C156.625 33.2555 156.535 33.1653 156.423 33.1653Z" fill="#E6E6E6"/>
<path d="M247.568 35.8457C248.754 35.8457 249.716 34.8856 249.716 33.7013C249.716 32.517 248.754 31.5569 247.568 31.5569C246.381 31.5569 245.419 32.517 245.419 33.7013C245.419 34.8856 246.381 35.8457 247.568 35.8457Z" fill="#E6E6E6"/>
<path d="M253.475 35.8457C254.661 35.8457 255.623 34.8856 255.623 33.7013C255.623 32.517 254.661 31.5569 253.475 31.5569C252.289 31.5569 251.327 32.517 251.327 33.7013C251.327 34.8856 252.289 35.8457 253.475 35.8457Z" fill="#E6E6E6"/>
<path d="M259.382 35.8457C260.569 35.8457 261.53 34.8856 261.53 33.7013C261.53 32.517 260.569 31.5569 259.382 31.5569C258.196 31.5569 257.234 32.517 257.234 33.7013C257.234 34.8856 258.196 35.8457 259.382 35.8457Z" fill="#E6E6E6"/>
<path d="M246.04 88.8192H154.931C153.496 88.8192 152.328 87.6535 152.328 86.2206C152.328 84.7878 153.496 83.6221 154.931 83.6221H246.04C247.475 83.6221 248.643 84.7878 248.643 86.2206C248.643 87.6535 247.475 88.8192 246.04 88.8192Z" fill="#E6E6E6"/>
<path d="M261.359 294.43H227.519C226.084 294.43 224.916 293.265 224.916 291.832C224.916 290.399 226.084 289.233 227.519 289.233H261.359C262.795 289.233 263.962 290.399 263.962 291.832C263.962 293.265 262.795 294.43 261.359 294.43Z" fill="#E6E6E6"/>
<path d="M170.901 294.43H137.061C135.626 294.43 134.458 293.265 134.458 291.832C134.458 290.399 135.626 289.233 137.061 289.233H170.901C172.337 289.233 173.505 290.399 173.505 291.832C173.505 293.265 172.337 294.43 170.901 294.43Z" fill="#E6E6E6"/>
<path d="M263.962 95.8015H137.008V96.4512H263.962V95.8015Z" fill="#3F3D56"/>
<path d="M246.04 128.447H154.931C153.496 128.447 152.328 127.281 152.328 125.849C152.328 124.416 153.496 123.25 154.931 123.25H246.04C247.475 123.25 248.643 124.416 248.643 125.849C248.643 127.281 247.475 128.447 246.04 128.447Z" fill="#E6E6E6"/>
<path d="M263.962 135.429H137.008V136.079H263.962V135.429Z" fill="#3F3D56"/>
<path d="M246.04 168.075H154.931C153.496 168.075 152.328 166.91 152.328 165.477C152.328 164.044 153.496 162.878 154.931 162.878H246.04C247.475 162.878 248.643 164.044 248.643 165.477C248.643 166.91 247.475 168.075 246.04 168.075Z" fill="#E6E6E6"/>
<path d="M263.962 175.058H137.008V175.707H263.962V175.058Z" fill="#3F3D56"/>
<path d="M263.962 208.839H137.008V209.489H263.962V208.839Z" fill="#3F3D56"/>
<path d="M263.962 242.62H137.008V243.27H263.962V242.62Z" fill="#3F3D56"/>
<path d="M201.379 266.383C222.225 266.383 239.124 249.514 239.124 228.704C239.124 207.894 222.225 191.025 201.379 191.025C180.533 191.025 163.634 207.894 163.634 228.704C163.634 249.514 180.533 266.383 201.379 266.383Z" fill="#7C3AED"/>
<circle cx="200.5" cy="228.5" r="30.5" fill="#7C3AED"/>
<path d="M200.215 218.708L199.324 219.566C199.44 219.686 199.578 219.781 199.731 219.846C199.884 219.911 200.049 219.945 200.215 219.945C200.382 219.945 200.546 219.911 200.7 219.846C200.853 219.781 200.991 219.686 201.107 219.566L200.215 218.708ZM191.965 236.73C191.711 236.521 191.385 236.422 191.058 236.454C190.73 236.486 190.429 236.646 190.221 236.9C190.012 237.154 189.912 237.48 189.944 237.808C189.976 238.135 190.137 238.436 190.391 238.645L191.965 236.73ZM184.276 231.764C184.354 231.907 184.459 232.033 184.586 232.135C184.713 232.236 184.858 232.312 185.014 232.358C185.17 232.404 185.334 232.418 185.495 232.401C185.657 232.383 185.813 232.334 185.956 232.256C186.099 232.178 186.224 232.073 186.326 231.946C186.428 231.819 186.504 231.674 186.55 231.518C186.595 231.362 186.61 231.198 186.592 231.037C186.575 230.875 186.526 230.719 186.448 230.576L184.276 231.764ZM184.949 224.71C184.949 221.162 186.954 218.185 189.692 216.932C192.353 215.716 195.928 216.038 199.324 219.566L201.107 217.851C197.08 213.664 192.399 212.973 188.663 214.681C185.009 216.353 182.474 220.235 182.474 224.71H184.949ZM194.434 241.813C195.281 242.48 196.188 243.19 197.108 243.728C198.027 244.264 199.077 244.702 200.215 244.702V242.226C199.704 242.226 199.103 242.028 198.357 241.591C197.609 241.155 196.835 240.554 195.967 239.869L194.434 241.813ZM205.997 241.813C208.35 239.957 211.36 237.831 213.72 235.172C216.125 232.466 217.957 229.11 217.957 224.71H215.481C215.481 228.338 213.996 231.132 211.87 233.528C209.7 235.971 206.965 237.897 204.463 239.869L205.997 241.813ZM217.957 224.71C217.957 220.235 215.424 216.353 211.768 214.681C208.032 212.973 203.354 213.664 199.324 217.85L201.107 219.566C204.503 216.039 208.078 215.716 210.738 216.932C213.476 218.185 215.481 221.16 215.481 224.71H217.957ZM204.463 239.869C203.595 240.554 202.821 241.155 202.074 241.591C201.328 242.026 200.727 242.226 200.215 242.226V244.702C201.354 244.702 202.404 244.264 203.323 243.728C204.244 243.19 205.15 242.48 205.997 241.813L204.463 239.869ZM195.967 239.869C194.654 238.834 193.318 237.844 191.965 236.73L190.391 238.645C191.76 239.772 193.209 240.848 194.434 241.813L195.967 239.869ZM186.448 230.578C185.454 228.783 184.938 226.762 184.949 224.71H182.474C182.474 227.414 183.167 229.736 184.276 231.764L186.448 230.578Z" fill="#FCFBFE"/>
<g clip-path="url(#clip0_373_2)">
<path fill-rule="evenodd" clip-rule="evenodd" d="M210.002 221.629C210.246 221.873 210.383 222.204 210.383 222.549C210.383 222.894 210.246 223.225 210.002 223.469L200.248 233.223C200.119 233.352 199.966 233.454 199.797 233.524C199.629 233.594 199.448 233.63 199.266 233.63C199.084 233.63 198.903 233.594 198.735 233.524C198.566 233.454 198.413 233.352 198.284 233.223L193.438 228.378C193.314 228.258 193.215 228.114 193.147 227.955C193.078 227.797 193.043 227.626 193.041 227.453C193.04 227.28 193.072 227.109 193.138 226.949C193.203 226.789 193.3 226.644 193.422 226.522C193.544 226.399 193.69 226.303 193.85 226.237C194.01 226.172 194.181 226.139 194.354 226.14C194.526 226.142 194.697 226.178 194.856 226.246C195.015 226.314 195.158 226.413 195.278 226.538L199.266 230.525L208.161 221.629C208.282 221.508 208.425 221.412 208.583 221.347C208.741 221.281 208.91 221.248 209.081 221.248C209.252 221.248 209.421 221.281 209.579 221.347C209.737 221.412 209.881 221.508 210.002 221.629Z" fill="#FCFBFE"/>
</g>
<defs>
<linearGradient id="paint0_linear_373_2" x1="160.5" y1="351" x2="309" y2="-3.32075e-06" gradientUnits="userSpaceOnUse">
<stop stop-color="#7C3AED" stop-opacity="0.44"/>
<stop offset="1" stop-color="#3A52ED" stop-opacity="0.68"/>
</linearGradient>
<clipPath id="clip0_373_2">
<rect width="20.8213" height="20.8213" fill="white" transform="translate(191.309 217.195)"/>
</clipPath>
</defs>
</svg>
