<svg width="300" height="223" viewBox="0 0 300 223" fill="none" xmlns="http://www.w3.org/2000/svg">
<g clip-path="url(#clip0_347_22)">
<path opacity="0.1" d="M78.4272 0.2483C106.411 3.76165 129.132 28.1923 154.345 43.438C159.963 46.8354 165.852 49.8272 172.077 50.7131C192.701 53.6496 211.718 33.3009 232.438 34.9623C249.232 36.3092 263.473 52.6257 269.516 71.8181C275.558 91.0104 274.631 112.477 271.276 132.624C266.022 164.087 254.383 195.039 234.123 215.504C230.78 218.882 227.046 222.042 222.752 222.809C215.597 224.104 208.962 218.543 202.769 213.945C174.821 193.185 139.489 187.913 108.286 199.847C97.7181 203.888 87.6108 209.783 76.7963 212.692C55.9709 218.283 32.4042 211.218 18.2647 191.716C4.12532 172.215 1.82642 140.161 15.2978 119.959C20.9217 111.528 28.673 105.574 34.5767 97.4382C49.4112 77.0149 43.9347 56.3654 42.0992 32.4149C40.2908 8.81503 62.0792 -1.80231 78.4272 0.2483Z" fill="#7C3AED"/>
<g opacity="0.2">
<path d="M205.631 150.415C205.631 150.415 213.909 158.007 209.242 169.273C204.575 180.539 217.252 199.273 217.252 199.273L216.863 199.215C199.862 196.455 191.416 178.629 200.871 165.381C204.379 160.466 207.265 154.687 205.631 150.415Z" fill="#7C3AED"/>
<path opacity="0.1" d="M205.631 150.552C205.631 150.552 213.909 158.145 209.242 169.411C204.575 180.677 217.252 199.411 217.252 199.411L216.863 199.353C199.862 196.593 191.416 178.767 200.871 165.519C204.379 160.59 207.265 154.814 205.631 150.552Z" fill="black"/>
<path d="M205.631 150.415C205.631 150.415 210.304 159.721 205.631 167.313C200.958 174.906 204.831 196.212 217.246 199.273" stroke="#535461" stroke-miterlimit="10"/>
<path d="M190.89 181.132C190.89 181.132 200.335 179.752 201.196 187.516C202.056 195.28 219.358 196.348 219.358 196.348L219.033 196.546C204.746 205.149 191.091 202.025 193.155 190.604C193.917 186.368 193.854 182.101 190.89 181.132Z" fill="#7C3AED"/>
<path d="M190.89 181.132C190.89 181.132 198.223 182.609 197.618 188.722C197.013 194.835 208.504 202.166 219.358 196.356" stroke="#535461" stroke-miterlimit="10"/>
</g>
<g opacity="0.2">
<path d="M107.452 138.459C107.452 138.459 114.331 144.768 110.461 154.127C106.592 163.486 117.117 179.054 117.117 179.054L116.795 179.004C102.671 176.716 95.6509 161.893 103.504 150.892C106.411 146.799 108.809 142 107.452 138.459Z" fill="#7C3AED"/>
<path opacity="0.1" d="M107.452 138.564C107.452 138.564 114.331 144.873 110.461 154.232C106.592 163.591 117.117 179.159 117.117 179.159L116.78 179.118C102.656 176.83 95.636 162.006 103.49 151.005C106.411 146.904 108.81 142.105 107.452 138.564Z" fill="black"/>
<path d="M107.452 138.459C107.452 138.459 111.334 146.186 107.452 152.498C103.571 158.81 106.787 176.51 117.102 179.054" stroke="#535461" stroke-miterlimit="10"/>
<path d="M95.2026 163.974C95.2026 163.974 103.059 162.834 103.766 169.279C104.473 175.723 118.857 176.634 118.857 176.634L118.586 176.799C106.715 183.947 95.3681 181.353 97.0803 171.862C97.7152 168.321 97.664 164.766 95.2026 163.974Z" fill="#7C3AED"/>
<path d="M95.2026 163.974C95.2026 163.974 101.293 165.2 100.793 170.28C100.294 175.361 109.839 181.453 118.848 176.628" stroke="#535461" stroke-miterlimit="10"/>
</g>
<g opacity="0.2">
<path d="M78.5656 98.7161C78.5656 98.7161 85.4442 105.025 81.5746 114.384C77.705 123.743 88.2306 139.311 88.2306 139.311L87.9086 139.262C73.7842 136.974 66.7642 122.15 74.6177 111.149C77.5245 107.056 79.9226 102.257 78.5656 98.7161Z" fill="#7C3AED"/>
<path opacity="0.1" d="M78.5657 98.821C78.5657 98.821 85.4444 105.13 81.5748 114.489C77.7052 123.848 88.2307 139.416 88.2307 139.416L87.8937 139.375C73.7693 137.087 66.7493 122.264 74.6028 111.263C77.5246 107.161 79.9228 102.362 78.5657 98.821Z" fill="black"/>
<path d="M78.5656 98.7161C78.5656 98.7161 82.4473 106.444 78.5656 112.756C74.684 119.068 77.9006 136.767 88.2156 139.311" stroke="#535461" stroke-miterlimit="10"/>
<path d="M66.3159 124.231C66.3159 124.231 74.1725 123.092 74.8796 129.536C75.5867 135.98 89.9699 136.891 89.9699 136.891L89.6991 137.057C77.8285 144.205 66.4814 141.61 68.1935 132.119C68.8285 128.578 68.7773 125.023 66.3159 124.231Z" fill="#7C3AED"/>
<path d="M66.3159 124.231C66.3159 124.231 72.4062 125.457 71.9067 130.538C71.4072 135.619 80.9518 141.71 89.9609 136.886" stroke="#535461" stroke-miterlimit="10"/>
</g>
<path d="M4.44141 163.491V159.729L88.4805 138.111L103.511 136.543V139.991L19.8145 167.562L4.44141 163.491Z" fill="#DFE5EE"/>
<path opacity="0.05" d="M4.44141 163.491V159.729L88.4805 138.111L103.511 136.543V139.991L19.8145 167.562L4.44141 163.491Z" fill="black"/>
<path d="M4.44141 159.729L88.4805 134.349L103.171 136.543L19.8145 163.803L4.44141 159.729Z" fill="#DFE5EE"/>
<path d="M22.8898 102.39H17.4224V160.67H22.8898V102.39Z" fill="#DFE5EE"/>
<path d="M88.4803 88.9158H83.0129V139.99H88.4803V88.9158Z" fill="#DFE5EE"/>
<path d="M102.144 72.9359V88.6039L33.9027 102.586L25.8295 104.241L5.80742 108.343L0 106.775V88.6039L30.9659 83.189L38.672 81.8421L94.9709 71.9976L102.144 72.9359Z" fill="#DFE5EE"/>
<path opacity="0.05" d="M102.144 72.9359V88.6039L33.9027 102.586L25.8295 104.241L5.80742 108.343L0 106.775V88.6039L30.9659 83.189L38.672 81.8421L94.9709 71.9976L102.144 72.9359Z" fill="black"/>
<path opacity="0.05" d="M22.8898 102.39V105.47L17.4224 106.59V102.39H22.8898Z" fill="black"/>
<path opacity="0.05" d="M88.4803 88.9158V92.0317L83.0129 93.1495V88.9158H88.4803Z" fill="black"/>
<path d="M102.144 72.9358V88.6038L74.4373 94.2809L66.3791 95.9313L33.9027 102.585L25.8294 104.241L5.80737 108.343L6.1504 90.4832L33.9749 85.3968L41.7592 83.9754H41.7622L73.5707 78.1603L81.34 76.7389L102.144 72.9358Z" fill="#DFE5EE"/>
<path d="M41.7624 83.9754L33.9028 102.585L25.8296 104.241L33.975 85.3968L30.966 83.1889L38.6721 81.842L41.7594 83.9754H41.7624Z" fill="#7C3AED"/>
<path d="M81.7312 77.0096L74.4373 94.2811L66.3792 95.9315L73.9438 78.431L73.5707 78.1605L70.9348 76.2231L78.6409 74.8762L81.34 76.7392L81.7282 77.0096H81.7312Z" fill="#7C3AED"/>
<path opacity="0.05" d="M18.6199 159.652L24.0843 158.476V159.652L18.6199 160.828V159.652Z" fill="black"/>
<path opacity="0.05" d="M83.8677 138.972L89.3321 137.796V138.972L83.8677 140.148V138.972Z" fill="black"/>
<path d="M198.514 96.1854C189.803 100.394 180.785 95.6334 180.785 95.6334C180.644 95.8765 180.482 96.1091 180.301 96.3289C180.19 96.2516 180.075 96.1716 179.961 96.086C176.218 93.2792 172.074 86.6527 172.074 86.6527L164.001 72.7676C163.012 71.099 162.266 69.3183 161.783 67.4714C160.453 62.1779 156.208 61.9516 156.208 61.9516H151.234C148.826 61.9516 145.348 62.4152 141.906 63.0555C141.997 62.9695 142.057 62.8595 142.077 62.7409L141.912 62.7713L143.759 61.1153C143.759 61.1153 149.046 59.1503 149.669 54.9414L152.467 52.4161C152.467 52.4161 152.558 52.1953 152.684 51.8062L153.614 50.7326C157.664 46.0821 157.956 46.0049 157.956 46.0049L170.236 39.3397C170.236 39.3397 174.644 38.7656 172.805 27.4583C170.967 16.151 172.204 14.7628 172.204 14.7628C172.204 14.7628 175.544 3.43339 169.14 4.8437C162.737 6.25401 165.632 15.9385 165.632 15.9385L166.077 18.0774C166.635 20.7561 166.605 23.5101 165.987 26.1777C165.322 29.0618 164.579 32.6249 164.765 33.4749C165.093 34.957 161.395 36.8337 161.395 36.8337L159.304 37.9542C157.09 39.1396 154.482 39.5476 151.965 39.1023L151.854 38.9478L150.602 38.0867C150.564 38.2047 150.534 38.3245 150.511 38.4455L150 38.0867V38.1143C150 38.015 150 37.9211 150.024 37.8162C150.171 36.7548 150.442 35.7111 150.833 34.7031C150.867 34.6092 150.909 34.5099 150.945 34.4271C153.284 34.297 155.482 33.3567 157.094 31.7965C158.707 30.2364 159.613 28.1727 159.629 26.0232C159.629 25.1379 159.475 24.2583 159.171 23.4178C159.408 23.4582 159.651 23.4582 159.888 23.4178C161.013 23.2522 162.208 22.7223 162.791 21.8088C163.1 21.3071 163.242 20.7336 163.2 20.1589C163.157 19.5842 162.933 19.0333 162.554 18.5742C162.41 18.4064 162.249 18.252 162.072 18.1133C161.004 17.0093 159.217 16.7334 157.796 15.9909C156.445 15.2927 155.419 14.1777 154.161 13.347C151.784 11.7711 148.745 11.2964 145.844 10.863C144.599 10.6781 143.332 10.4932 142.08 10.645C140.497 10.8382 139.041 11.5641 137.801 12.4721C137.362 12.7618 136.994 13.1333 136.721 13.5622C136.261 14.3902 136.462 15.3617 136.381 16.278C136.182 18.508 134.275 20.324 132.168 21.508C130.875 22.2338 129.46 22.8134 128.374 23.7877C127.288 24.7619 126.647 26.2992 127.324 27.5301C127.682 28.1814 128.389 28.7251 128.395 29.462C128.372 29.7861 128.269 30.1012 128.094 30.3838C127.371 31.7679 126.395 33.028 125.209 34.1097C120.815 33.1382 116.073 35.2744 116.073 35.2744L101.765 35.8263C101.765 35.8263 97.7211 34.1428 92.4373 44.5256C87.1534 54.9083 85.2818 55.4713 85.2818 55.4713C85.2818 55.4713 75.6529 63.3288 81.8605 65.2938C88.0682 67.2589 91.4894 57.7151 91.4894 57.7151L94.9348 51.8421C94.9348 51.8421 102.71 45.1051 103.333 43.7031C103.956 42.3011 107.687 42.3011 107.687 42.3011L122.856 42.8531C122.876 42.9654 122.888 43.0788 122.892 43.1925C122.928 44.7491 121.336 45.9524 119.735 46.5292C118.724 46.8991 117.569 47.1778 116.952 47.9892C116.335 48.8006 116.482 49.9791 117.102 50.8071C117.291 51.0545 117.513 51.2797 117.761 51.4777C118.412 52.093 119.206 52.5648 120.084 52.8577C120.812 53.1239 121.57 53.3164 122.344 53.4318C122.029 54.623 121.601 55.7866 121.065 56.9092L121.667 57.1466L121.468 57.6323C120.62 59.6995 118.872 63.7786 117.325 66.246C117.31 66.246 114.514 68.4208 112.345 70.3858C110.687 71.8817 106.691 86.2829 118.384 86.5423L121.053 88.3473H121.107C123.481 91.4218 131.32 96.4724 131.32 96.4724L117.457 97.2231C116.766 97.2617 116.078 97.3382 115.396 97.4522C115.169 97.489 114.943 97.5304 114.716 97.5764C112.273 98.0676 109.568 97.8938 108.117 97.7365C107.157 96.0805 102.701 96.7539 102.701 96.7539C102.701 96.7539 102.078 105.174 103.002 109.943C103.926 114.713 107.356 111.627 107.356 111.627C106.733 107.418 111.87 104.322 111.87 104.322C112.523 104.021 113.296 103.656 114.205 103.218C117.087 101.799 130.799 103.968 135.039 104.686C135.973 104.845 136.921 104.919 137.871 104.907C150.024 104.725 146.868 99.2875 146.868 99.2875L144.421 94.8717C144.02 94.1375 143.662 93.3838 143.35 92.6141C141.19 87.3703 137.831 84.4834 135.259 82.9379C135.397 82.7778 135.536 82.6177 135.671 82.4494C135.671 82.4494 135.466 82.4052 135.156 82.3196C137.329 81.3012 138.767 80.4871 138.767 80.4871C138.767 80.4871 153.075 72.6296 152.455 74.5947C151.835 76.5597 155.567 84.1357 162.409 89.4678C162.608 89.6223 162.8 89.7797 162.993 89.9397L163.179 90.097L163.562 90.4282L163.769 90.6131L164.124 90.9388L164.323 91.1265L164.699 91.4963L164.849 91.6453C165.02 91.8183 165.189 91.9931 165.355 92.1697L165.463 92.2884C165.592 92.4282 165.719 92.5681 165.845 92.7079L166.017 92.9039L166.318 93.2571L166.492 93.4641L166.793 93.8257L166.95 94.0161L167.299 94.4604L167.383 94.5653C167.526 94.7493 167.665 94.9333 167.801 95.1173L167.904 95.2581L168.205 95.6748L168.331 95.8542L168.599 96.2406L168.716 96.4117L168.996 96.834L169.077 96.9554C169.32 97.3234 169.551 97.6914 169.769 98.0593L169.805 98.1201L170.091 98.5948L170.136 98.6721L170.41 99.1468L170.428 99.1799C171.2 100.531 171.89 101.919 172.495 103.339C172.146 103.416 171.791 103.472 171.433 103.505C169.568 111.083 174.545 111.083 174.545 111.083C174.545 111.083 192.9 108.558 199.742 102.103C206.585 95.6472 198.514 96.1854 198.514 96.1854Z" fill="url(#paint0_linear_347_22)"/>
<path d="M131.946 81.8311C131.946 81.8311 139.51 83.6305 143.284 92.9314C143.587 93.6838 143.933 94.4208 144.322 95.1393L146.69 99.4944C146.69 99.4944 149.744 104.84 137.988 105.014C137.07 105.026 136.152 104.953 135.25 104.796C131.148 104.092 117.885 101.959 115.089 103.353C113.527 104.164 111.92 104.901 110.275 105.561L106.965 102.249L108.168 97.833C108.168 97.833 112.143 98.5174 115.577 97.8136C116.449 97.6332 117.335 97.517 118.228 97.4659L131.645 96.7345C131.645 96.7345 121.113 89.8348 121.113 87.3509C121.113 84.8669 131.946 81.8311 131.946 81.8311Z" fill="#F8BDC5"/>
<path opacity="0.05" d="M109.378 98.6663C109.378 98.6663 106.068 103.618 112.836 104.462C112.836 104.462 107.874 107.498 108.475 111.638C108.475 111.638 105.165 114.674 104.263 109.982C103.36 105.29 103.962 97.0104 103.962 97.0104C103.962 97.0104 109.378 96.1824 109.378 98.6663Z" fill="black"/>
<path opacity="0.05" d="M131.946 81.8311C131.946 81.8311 139.51 83.6305 143.284 92.9314C143.587 93.6838 143.933 94.4208 144.322 95.1393L146.69 99.4944C146.69 99.4944 149.744 104.84 137.988 105.014C137.07 105.026 136.152 104.953 135.25 104.796C131.148 104.092 117.885 101.959 115.089 103.353C113.527 104.164 111.92 104.901 110.275 105.561L106.965 102.249L108.168 97.833C108.168 97.833 112.143 98.5174 115.577 97.8136C116.449 97.6332 117.335 97.517 118.228 97.4659L131.645 96.7345C131.645 96.7345 121.113 89.8348 121.113 87.3509C121.113 84.8669 131.946 81.8311 131.946 81.8311Z" fill="black"/>
<path opacity="0.05" d="M108.475 102.806L109.679 98.3905C109.679 98.3905 113.654 99.0749 117.087 98.3711C117.959 98.1907 118.846 98.0745 119.738 98.0234L133.149 97.2865C133.149 97.2865 122.618 90.3867 122.618 87.9028C122.618 85.4189 133.45 82.383 133.45 82.383L133.532 82.4051C133.022 82.1721 132.491 81.98 131.946 81.8311C131.946 81.8311 121.113 84.8669 121.113 87.3509C121.113 89.8348 131.645 96.7345 131.645 96.7345L118.237 97.4714C117.344 97.5225 116.458 97.6388 115.586 97.8192C112.152 98.5229 108.177 97.8385 108.177 97.8385L106.974 102.254L110.284 105.566C110.284 105.566 110.506 105.483 110.964 105.29L108.475 102.806Z" fill="black"/>
<path d="M109.378 98.6663C109.378 98.6663 106.068 103.618 112.836 104.462C112.836 104.462 107.874 107.498 108.475 111.638C108.475 111.638 105.165 114.674 104.263 109.982C103.36 105.29 103.962 97.0104 103.962 97.0104C103.962 97.0104 109.378 96.1824 109.378 98.6663Z" fill="#FFD97B"/>
<path d="M100.429 178.671V174.909L184.468 153.291L199.498 151.723V155.17L115.802 182.741L100.429 178.671Z" fill="#DFE5EE"/>
<path opacity="0.05" d="M100.429 178.671V174.909L184.468 153.291L199.498 151.723V155.17L115.802 182.741L100.429 178.671Z" fill="black"/>
<path d="M100.429 174.909L184.468 149.529L199.158 151.723L115.802 178.982L100.429 174.909Z" fill="#DFE5EE"/>
<path d="M118.878 117.569H113.41V175.85H118.878V117.569Z" fill="#DFE5EE"/>
<path d="M184.468 104.095H179.001V155.17H184.468V104.095Z" fill="#DFE5EE"/>
<path d="M198.132 88.1154V103.783L129.891 117.765L121.818 119.421L101.795 123.522L95.988 121.955V103.783L126.951 98.3684L134.66 97.0216L190.959 87.177L198.132 88.1154Z" fill="#DFE5EE"/>
<path opacity="0.05" d="M198.132 88.1154V103.783L129.891 117.765L121.818 119.421L101.795 123.522L95.988 121.955V103.783L126.951 98.3684L134.66 97.0216L190.959 87.177L198.132 88.1154Z" fill="black"/>
<path opacity="0.05" d="M118.878 117.569V120.649L113.41 121.77V117.569H118.878Z" fill="black"/>
<path opacity="0.05" d="M184.468 104.095V107.211L179.001 108.329V104.095H184.468Z" fill="black"/>
<path d="M198.132 88.1152V103.783L170.425 109.46L162.367 111.111L129.891 117.765L121.817 119.421L101.795 123.522L102.138 105.663L129.963 100.576L137.747 99.1548H137.75L169.559 93.3397L177.328 91.9184L198.132 88.1152Z" fill="#DFE5EE"/>
<path d="M137.75 99.1549L129.891 117.765L121.817 119.421L129.963 100.576L126.951 98.3683L134.66 97.0215L137.747 99.1549H137.75Z" fill="#7C3AED"/>
<path d="M177.719 92.1891L170.425 109.461L162.367 111.111L169.932 93.6104L169.559 93.34L166.923 91.4025L174.629 90.0557L177.328 91.9186L177.716 92.1891H177.719Z" fill="#7C3AED"/>
<path opacity="0.05" d="M114.608 174.831L120.072 173.656V174.831L114.608 176.007V174.831Z" fill="black"/>
<path opacity="0.05" d="M179.855 154.152L185.32 152.976V154.152L179.855 155.324V154.152Z" fill="black"/>
<path d="M169.297 40.543L157.417 47.0978C157.417 47.0978 157.134 47.175 153.205 51.7482L151.793 53.4041C148.808 56.923 142.604 58.096 142.604 58.096L138.668 52.5431L137.837 45.7979L138.71 43.0738L139.402 40.9156L145.456 41.7104L147.894 42.9165L150.903 40.1566C151.137 40.2146 151.375 40.267 151.613 40.3084C154.048 40.749 156.575 40.351 158.711 39.1906L160.733 38.0867C160.733 38.0867 164.308 36.2403 163.992 34.7748C163.811 33.9468 164.53 30.4362 165.174 27.5991C165.772 24.9749 165.802 22.2686 165.262 19.634L164.831 17.5309C164.831 17.5309 162.036 8.00377 168.226 6.62382C174.415 5.24386 171.189 16.3773 171.189 16.3773C171.189 16.3773 170.004 17.7407 171.791 28.8603C173.579 39.98 169.297 40.543 169.297 40.543Z" fill="#F8BDC5"/>
<path d="M149.714 39.0637C149.377 41.9837 150.903 42.3756 150.903 42.3756L151.806 45.6875V49.2753L149.097 53.4152H142.478L136.76 50.9313V39.3397L135.858 36.5798C136.363 36.5501 136.865 36.4901 137.362 36.4004C140.266 35.8677 141.912 34.3884 142.839 32.7822C144.283 30.2679 143.982 27.4611 143.982 27.4611C143.982 27.4611 156.018 24.4252 151.806 32.9809C151.246 34.1207 150.819 35.1226 150.497 36.0168C150.119 37.0043 149.857 38.0256 149.714 39.0637Z" fill="#F8BDC5"/>
<path d="M142.053 63.2929C142.034 63.4153 141.971 63.5286 141.876 63.6158C141.719 63.7825 141.589 63.9683 141.488 64.1678C140.079 66.6048 137.362 75.2074 137.362 75.2074L122.618 70.2396L122.404 70.1899L116.6 68.8597C118.246 67.7805 120.996 61.3086 122.115 58.5321C122.416 57.7566 122.618 57.2681 122.618 57.2681L138.265 58.648C138.265 58.648 142.321 61.9047 142.053 63.2929Z" fill="#F8BDC5"/>
<path d="M135.857 35.7406C135.857 35.7406 131.344 37.3966 126.83 35.7406C122.317 34.0847 116.901 36.5686 116.901 36.5686L103.059 37.1206C103.059 37.1206 99.1473 35.4646 94.032 45.6763C88.9166 55.8879 87.1112 56.4399 87.1112 56.4399C87.1112 56.4399 77.7832 64.1676 83.8013 66.0995C89.8193 68.0315 93.1293 58.6478 93.1293 58.6478L96.4392 52.852C96.4392 52.852 103.962 46.2282 104.564 44.8483C105.165 43.4683 108.776 43.4683 108.776 43.4683L123.821 44.0203L123.728 48.0553L128.335 51.748L132.548 48.4362L135.857 42.3644V35.7406Z" fill="#F8BDC5"/>
<path opacity="0.1" d="M151.805 32.9809C151.246 34.1207 150.818 35.1226 150.496 36.0168C150.334 36.0168 150.165 36.0168 150 36.0168C148.614 36.0181 147.246 35.7259 146.004 35.1629C144.761 34.6 143.677 33.7815 142.835 32.7711C144.283 30.2679 143.982 27.4611 143.982 27.4611C143.982 27.4611 156.018 24.4252 151.805 32.9809Z" fill="black"/>
<path d="M150 35.7408C154.986 35.7408 159.027 32.0339 159.027 27.4611C159.027 22.8883 154.986 19.1814 150 19.1814C145.014 19.1814 140.973 22.8883 140.973 27.4611C140.973 32.0339 145.014 35.7408 150 35.7408Z" fill="#F8BDC5"/>
<path opacity="0.1" d="M142.053 63.2929C142.033 63.4152 141.971 63.5285 141.876 63.6158C141.719 63.7825 141.588 63.9682 141.487 64.1678C136.134 63.9525 124.42 59.4456 122.115 58.5431C122.416 57.7676 122.618 57.2791 122.618 57.2791L138.265 58.659C138.265 58.659 142.321 61.9046 142.053 63.2929Z" fill="black"/>
<path opacity="0.1" d="M153.217 51.7482L151.805 53.4042C148.821 56.923 142.616 58.096 142.616 58.096L138.68 52.5431L137.85 45.7979L138.114 39.1907C138.954 42.7785 141.301 50.2634 144.885 50.9203C150.876 52.0242 150.445 44.1502 150.151 40.8466C150.106 40.3365 150.156 39.823 150.301 39.3287L151.505 40.1566L151.613 40.3084C154.48 44.3931 153.837 49.256 153.217 51.7482Z" fill="black"/>
<path d="M137.362 35.1887H134.353C134.353 35.1887 137.362 52.8521 123.22 47.8843C123.22 47.8843 124.423 52.0241 121.715 57.8199C121.715 57.8199 136.158 63.6157 141.876 63.6157L143.681 61.9598C143.681 61.9598 148.796 60.0278 149.398 55.888L152.106 53.4041C152.106 53.4041 155.115 45.9523 150.903 40.1565L149.699 39.3286C149.554 39.8229 149.503 40.3364 149.549 40.8465C149.849 44.1584 150.274 52.0186 144.283 50.9202C136.76 49.5402 137.362 35.1887 137.362 35.1887Z" fill="#EB6576"/>
<path d="M116.901 85.419L121.715 88.7309C121.715 88.7309 129.539 90.9388 135.858 82.9351C135.858 82.9351 131.946 82.1071 132.548 80.1752C133.149 78.2433 116.901 85.419 116.901 85.419Z" fill="#5E52AD"/>
<path opacity="0.05" d="M116.901 85.419L121.715 88.7309C121.715 88.7309 129.539 90.9388 135.858 82.9351C135.858 82.9351 131.946 82.1071 132.548 80.1752C133.149 78.2433 116.901 85.419 116.901 85.419Z" fill="black"/>
<path opacity="0.1" d="M142.053 63.5688C142.034 63.6912 141.971 63.8045 141.876 63.8918C140.672 64.9957 137.362 75.4833 137.362 75.4833L122.618 70.5155L122.404 70.4658C123.547 69.8037 124.756 69.2436 126.015 68.7933C127.041 68.429 128.073 68.0427 128.967 67.6728C129.691 67.3887 130.387 67.047 131.046 66.6517C132.307 65.8237 137.149 64.4989 142.053 63.5688Z" fill="black"/>
<path d="M176.178 102.806L171.665 103.91C171.665 103.91 171.563 103.634 171.364 103.154C170.401 100.908 167.193 94.1541 161.735 89.8349C155.115 84.5911 151.504 77.1393 152.106 75.2074C152.708 73.2755 138.866 81.0032 138.866 81.0032C138.866 81.0032 128.831 86.73 122.199 86.7383C121.209 86.764 120.223 86.5966 119.308 86.247C116.75 85.19 115.715 83.3381 115.369 81.5552C115.164 80.4267 115.219 79.2713 115.53 78.1634C115.841 77.0554 116.401 76.0194 117.174 75.1218C119.467 72.4031 122.526 70.3103 126.021 69.0694C127.047 68.7051 128.079 68.3187 128.973 67.9489C129.697 67.6647 130.393 67.323 131.052 66.9277C133.158 65.5477 145.194 62.7878 150.912 62.7878H155.726C155.726 62.7878 159.83 63.0086 161.118 68.2138C161.582 70.0244 162.301 71.7722 163.255 73.4135L171.063 87.075C171.063 87.075 175.071 93.5911 178.691 96.351C179.723 97.1403 180.725 97.6233 181.595 97.5626C185.506 97.2866 176.178 102.806 176.178 102.806Z" fill="#F8BDC5"/>
<path opacity="0.1" d="M162.084 23.3267C162.383 22.8324 162.52 22.2699 162.479 21.7061C162.439 21.1424 162.222 20.6013 161.856 20.1473C160.845 18.9412 159.018 18.6652 157.577 17.909C156.268 17.2218 155.278 16.1261 154.062 15.3092C151.763 13.7608 148.833 13.2917 146.019 12.8694C144.815 12.6872 143.588 12.5051 142.378 12.6569C140.847 12.8473 139.438 13.5621 138.238 14.4536C137.812 14.7395 137.456 15.1043 137.194 15.5244C136.748 16.3303 136.944 17.2963 136.866 18.196C136.673 20.3901 134.826 22.1758 132.788 23.3377C131.537 24.0525 130.158 24.6211 129.117 25.5787C128.076 26.5364 127.447 28.0489 128.103 29.2577C128.452 29.898 129.135 30.4334 129.138 31.151C129.119 31.4691 129.022 31.7793 128.856 32.059C128.143 33.4491 127.172 34.7146 125.985 35.7987C124.92 36.7701 123.647 37.6423 123.093 38.9256C122.561 40.1593 122.792 41.5669 123.283 42.8171C123.512 43.4132 123.797 44.0094 123.809 44.6386C123.843 46.1704 122.305 47.3461 120.755 47.9201C119.777 48.2817 118.649 48.5577 118.062 49.3553C117.475 50.1529 117.608 51.3121 118.207 52.1152C118.805 52.9183 119.771 53.4565 120.764 53.8236C122.608 54.5357 124.651 54.6885 126.596 54.2596C127.561 54.0386 128.464 53.6352 129.249 53.0754C130.034 52.5155 130.683 51.8116 131.154 51.0085C132.057 49.3967 132.117 47.4206 133.369 46.0131C135.575 43.554 140.227 44.175 142.529 41.7876C144.376 39.8695 143.874 36.9633 143.732 34.4077C143.65 32.9839 143.715 31.5563 143.925 30.1436C144.075 29.139 144.352 28.0599 145.213 27.4251C145.908 26.9118 146.847 26.7959 147.731 26.6965C149.579 26.484 151.706 26.0728 152.546 24.5465C152.895 23.9118 153 23.1114 153.629 22.6974C154.499 22.1233 155.717 22.6974 156.475 23.3874C157.312 24.1519 158.013 25.093 159.286 24.9026C160.366 24.748 161.522 24.2264 162.084 23.3267Z" fill="black"/>
<path d="M161.759 23.0286C162.057 22.5341 162.194 21.9714 162.153 21.4076C162.112 20.8439 161.895 20.3029 161.527 19.8492C160.516 18.6431 158.69 18.3671 157.249 17.6109C155.94 16.9237 154.95 15.828 153.734 15.0111C151.435 13.4628 148.504 12.9936 145.691 12.5713C144.487 12.3892 143.26 12.207 142.05 12.3588C140.518 12.5492 139.11 13.264 137.91 14.1555C137.484 14.4414 137.128 14.8062 136.865 15.2263C136.42 16.0322 136.616 16.9982 136.538 17.8979C136.345 20.092 134.497 21.8777 132.46 23.0396C131.209 23.7544 129.83 24.323 128.789 25.2807C127.748 26.2383 127.119 27.7508 127.775 28.9596C128.124 29.5999 128.807 30.1353 128.81 30.8529C128.79 31.171 128.694 31.4812 128.527 31.7609C127.815 33.151 126.843 34.4166 125.657 35.5006C124.592 36.472 123.319 37.3442 122.765 38.6275C122.233 39.8612 122.464 41.2688 122.955 42.519C123.183 43.1151 123.469 43.7113 123.481 44.3405C123.514 45.8723 121.977 47.048 120.427 47.622C119.449 47.9836 118.321 48.2596 117.734 49.0572C117.147 49.8548 117.28 51.014 117.879 51.8171C118.477 52.6202 119.443 53.1584 120.436 53.5255C122.28 54.2376 124.323 54.3904 126.268 53.9615C127.232 53.7405 128.136 53.3371 128.921 52.7773C129.706 52.2174 130.355 51.5135 130.826 50.7104C131.729 49.0986 131.789 47.1225 133.041 45.715C135.247 43.2559 139.899 43.8769 142.2 41.4895C144.048 39.5714 143.546 36.6652 143.404 34.1096C143.322 32.6858 143.387 31.2582 143.597 29.8455C143.747 28.8409 144.024 27.7618 144.885 27.127C145.58 26.6137 146.518 26.4978 147.403 26.3984C149.251 26.1859 151.378 25.7747 152.218 24.2484C152.567 23.6137 152.672 22.8133 153.301 22.3993C154.17 21.8253 155.389 22.3993 156.147 23.0893C156.984 23.8538 157.685 24.7949 158.958 24.6045C160.038 24.4472 161.196 23.9255 161.759 23.0286Z" fill="#6E464E"/>
<path opacity="0.1" d="M130.592 55.75C130.592 55.75 133.902 58.2339 138.114 57.9579L130.592 55.75Z" fill="black"/>
<path opacity="0.05" d="M182.323 97.6122C180.596 99.1688 176.78 101.426 176.78 101.426L172.267 102.53C172.267 102.53 168.957 93.6987 162.337 88.4549C155.717 83.2111 152.106 75.7593 152.708 73.8274C153.31 71.8955 139.469 79.6232 139.469 79.6232C139.469 79.6232 129.433 85.35 122.801 85.3583C121.811 85.384 120.825 85.2166 119.91 84.867C117.352 83.81 116.317 81.9581 115.971 80.1752C115.737 78.9499 115.822 77.6914 116.218 76.5017C115.344 78.057 115.046 79.8308 115.369 81.5551C115.715 83.338 116.75 85.1899 119.308 86.247C120.223 86.5965 121.209 86.764 122.2 86.7382C128.82 86.7382 138.867 81.0031 138.867 81.0031C138.867 81.0031 152.708 73.2754 152.106 75.2073C151.505 77.1393 155.115 84.591 161.735 89.8348C168.355 95.0786 171.665 103.91 171.665 103.91L176.179 102.806C176.179 102.806 183.969 98.1946 182.323 97.6122Z" fill="black"/>
<path opacity="0.1" d="M129.238 68.0315L128.726 68.2496C124.992 69.8224 121.933 72.4881 120.03 75.8282C115.998 83.0261 121.327 86.2689 122.199 86.7381C121.209 86.7639 120.223 86.5965 119.308 86.2469C116.75 85.1898 115.715 83.3379 115.369 81.555C115.164 80.4265 115.219 79.2712 115.53 78.1632C115.841 77.0553 116.401 76.0193 117.174 75.1217C119.467 72.4029 122.526 70.3102 126.021 69.0692C127.047 68.7049 128.079 68.3186 128.973 67.9487L129.238 68.0315Z" fill="black"/>
<path d="M128.636 68.0316C128.636 68.0316 122.317 65.9727 118.104 67.0021C118.104 67.0021 115.396 69.1355 113.29 71.0674C111.575 72.6406 107.272 88.7308 121.715 86.7989C121.715 86.7989 115.047 83.6471 119.428 75.8283C121.331 72.488 124.39 69.8222 128.124 68.2496L128.636 68.0316Z" fill="#5E52AD"/>
<path opacity="0.1" d="M176.178 102.806L171.665 103.91C171.665 103.91 171.563 103.634 171.364 103.154C172.414 102.9 173.771 102.326 173.771 101.15C173.771 101.15 177.217 98.2 178.691 96.3508C179.723 97.1402 180.725 97.6231 181.595 97.5624C185.506 97.2864 176.178 102.806 176.178 102.806Z" fill="black"/>
<path d="M174.072 101.426C174.072 101.426 178.586 97.5624 179.489 95.9065C179.489 95.9065 188.215 100.598 196.64 96.4585C196.64 96.4585 204.463 95.9065 197.844 102.254C191.224 108.602 173.471 111.086 173.471 111.086C173.471 111.086 168.656 111.086 170.461 103.634C170.461 103.634 174.072 103.358 174.072 101.426Z" fill="#FFD97B"/>
<path d="M200.931 197.99V194.228L284.97 172.61L300 171.042V174.489L216.304 202.061L200.931 197.99Z" fill="#DFE5EE"/>
<path opacity="0.05" d="M200.931 197.99V194.228L284.97 172.61L300 171.042V174.489L216.304 202.061L200.931 197.99Z" fill="black"/>
<path d="M200.931 194.228L284.97 168.848L299.66 171.042L216.304 198.302L200.931 194.228Z" fill="#DFE5EE"/>
<path d="M219.379 136.888H213.912V195.169H219.379V136.888Z" fill="#DFE5EE"/>
<path d="M284.97 123.415H279.502V174.489H284.97V123.415Z" fill="#DFE5EE"/>
<path d="M298.634 107.435V123.103L230.392 137.084L222.319 138.74L202.297 142.841L196.49 141.274V123.103L227.452 117.688L235.162 116.341L291.46 106.496L298.634 107.435Z" fill="#DFE5EE"/>
<path opacity="0.05" d="M298.634 107.435V123.103L230.392 137.084L222.319 138.74L202.297 142.841L196.49 141.274V123.103L227.452 117.688L235.162 116.341L291.46 106.496L298.634 107.435Z" fill="black"/>
<path opacity="0.05" d="M219.379 136.888V139.968L213.912 141.089V136.888H219.379Z" fill="black"/>
<path opacity="0.05" d="M284.97 123.415V126.53L279.502 127.648V123.415H284.97Z" fill="black"/>
<path d="M298.634 107.435V123.103L270.927 128.78L262.869 130.43L230.392 137.084L222.319 138.74L202.297 142.841L202.64 124.982L230.464 119.896L238.249 118.474H238.252L270.06 112.659L277.829 111.238L298.634 107.435Z" fill="#DFE5EE"/>
<path d="M238.252 118.474L230.392 137.084L222.319 138.74L230.464 119.896L227.452 117.688L235.161 116.341L238.249 118.474H238.252Z" fill="#7C3AED"/>
<path d="M278.221 111.508L270.927 128.78L262.869 130.43L270.433 112.93L270.06 112.659L267.424 110.722L275.13 109.375L277.83 111.238L278.218 111.508H278.221Z" fill="#7C3AED"/>
<path opacity="0.05" d="M215.109 194.151L220.574 192.975V194.151L215.109 195.327V194.151Z" fill="black"/>
<path opacity="0.05" d="M280.357 173.471L285.821 172.295V173.471L280.357 174.644V173.471Z" fill="black"/>
</g>
<defs>
<linearGradient id="paint0_linear_347_22" x1="141.141" y1="112.604" x2="141.141" y2="4.71122" gradientUnits="userSpaceOnUse">
<stop stop-color="#808080" stop-opacity="0.25"/>
<stop offset="0.54" stop-color="#808080" stop-opacity="0.12"/>
<stop offset="1" stop-color="#808080" stop-opacity="0.1"/>
</linearGradient>
<clipPath id="clip0_347_22">
<rect width="300" height="223" fill="white"/>
</clipPath>
</defs>
</svg>
