<svg width="25" height="24" viewBox="0 0 25 24" fill="none" xmlns="http://www.w3.org/2000/svg">
<path d="M12.5 13V2L20.5 6L12.5 10" stroke="#3F3D56" stroke-width="2" stroke-linecap="round" stroke-linejoin="round"/>
<path d="M21.0609 10.2219C21.5931 11.862 21.6429 13.6205 21.2044 15.2881C20.7659 16.9558 19.8576 18.4623 18.5875 19.6286C17.3174 20.7948 15.739 21.5717 14.0402 21.8667C12.3413 22.1617 10.5934 21.9625 9.00448 21.2928C7.41556 20.623 6.05248 19.5109 5.07741 18.0888C4.10234 16.6666 3.55633 14.9943 3.50434 13.2708C3.45234 11.5473 3.89656 9.8451 4.78413 8.36677C5.6717 6.88844 6.96526 5.6962 8.51092 4.93188" stroke="#3F3D56" stroke-width="2" stroke-linecap="round" stroke-linejoin="round"/>
<path d="M8.5019 9.99707C8.0008 10.6641 7.67458 11.4459 7.55294 12.2713C7.43131 13.0966 7.51813 13.9393 7.8055 14.7225C8.09287 15.5057 8.57165 16.2046 9.19822 16.7554C9.8248 17.3063 10.5792 17.6916 11.3928 17.8762C12.2064 18.0609 13.0533 18.039 13.8562 17.8127C14.6592 17.5863 15.3928 17.1626 15.9901 16.5802C16.5874 15.9977 17.0295 15.2751 17.2761 14.4781C17.5227 13.6811 17.5659 12.8351 17.4019 12.0171" stroke="#3F3D56" stroke-width="2" stroke-linecap="round" stroke-linejoin="round"/>
</svg>
