<svg width="17" height="17" viewBox="0 0 17 17" fill="none" xmlns="http://www.w3.org/2000/svg">
<path fill-rule="evenodd" clip-rule="evenodd" d="M10.1894 10.9409C9.23464 11.7037 8.02407 12.072 6.80629 11.9702C5.5885 11.8683 4.45594 11.304 3.64121 10.3932C2.82649 9.48237 2.39145 8.29415 2.42544 7.07258C2.45943 5.85101 2.95987 4.68883 3.82398 3.82471C4.68809 2.9606 5.85028 2.46016 7.07185 2.42617C8.29342 2.39218 9.48163 2.82722 10.3925 3.64195C11.3033 4.45667 11.8676 5.58923 11.9694 6.80702C12.0713 8.02481 11.703 9.23538 10.9402 10.1901L14.5924 13.8416C14.6446 13.8902 14.6864 13.9488 14.7155 14.014C14.7445 14.0792 14.7601 14.1495 14.7614 14.2209C14.7626 14.2922 14.7495 14.363 14.7228 14.4292C14.6961 14.4953 14.6563 14.5554 14.6059 14.6059C14.5554 14.6563 14.4953 14.6961 14.4292 14.7228C14.363 14.7495 14.2922 14.7626 14.2208 14.7614C14.1495 14.7601 14.0792 14.7445 14.014 14.7155C13.9488 14.6864 13.8902 14.6446 13.8415 14.5924L10.1894 10.9409ZM4.57512 9.83451C4.05523 9.31457 3.70114 8.65218 3.5576 7.93106C3.41407 7.20994 3.48752 6.46245 3.76869 5.78306C4.04985 5.10367 4.52611 4.52288 5.13726 4.11409C5.74841 3.70529 6.46703 3.48684 7.2023 3.48635C7.93757 3.48585 8.65649 3.70334 9.26819 4.11131C9.87989 4.51928 10.3569 5.09943 10.639 5.77844C10.9211 6.45745 10.9955 7.20484 10.853 7.92615C10.7104 8.64747 10.3572 9.31033 9.83803 9.83097L9.83449 9.83451L9.83095 9.83735C9.13331 10.5334 8.18792 10.924 7.20245 10.9235C6.21697 10.923 5.27201 10.5313 4.57512 9.83451Z" fill="#71717A"/>
</svg>
