<svg width="25" height="24" viewBox="0 0 25 24" fill="none" xmlns="http://www.w3.org/2000/svg">
<path d="M12.5 8C14.1569 8 15.5 6.65685 15.5 5C15.5 3.34315 14.1569 2 12.5 2C10.8431 2 9.5 3.34315 9.5 5C9.5 6.65685 10.8431 8 12.5 8Z" stroke="#3F3D56" stroke-width="2" stroke-linecap="round" stroke-linejoin="round"/>
<path d="M6.99997 8C6.56723 8.00449 6.14761 8.14923 5.80412 8.41248C5.46063 8.67573 5.21179 9.0433 5.09497 9.46L2.59997 18.5C2.52437 18.7926 2.51606 19.0985 2.57565 19.3947C2.63525 19.691 2.7612 19.9699 2.94405 20.2105C3.1269 20.4511 3.3619 20.6471 3.63138 20.7839C3.90086 20.9206 4.19783 20.9945 4.49997 21H20.5C20.8086 20.9999 21.1131 20.9283 21.3895 20.7909C21.6659 20.6535 21.9068 20.454 22.0932 20.208C22.2796 19.962 22.4066 19.6762 22.4642 19.3729C22.5217 19.0697 22.5083 18.7572 22.425 18.46L19.9 9.5C19.7898 9.07341 19.5419 8.69512 19.1947 8.42388C18.8476 8.15265 18.4205 8.00364 17.98 8H6.99997Z" stroke="#3F3D56" stroke-width="2" stroke-linecap="round" stroke-linejoin="round"/>
</svg>
